<svg width="20" height="20" viewBox="0 0 20 20" fill="none" xmlns="http://www.w3.org/2000/svg">
<g id="icn_inspector">
<g id="Property 1=ins_setup">
<g id="Group 572">
<g id="Group 194">
<path id="Ellipse 84" d="M10 3C9.08075 3 8.1705 3.18106 7.32122 3.53284C6.47194 3.88463 5.70026 4.40024 5.05025 5.05025C4.40024 5.70026 3.88463 6.47194 3.53284 7.32122C3.18106 8.1705 3 9.08075 3 10H10L10 3Z" fill="#F5F5F5" fill-opacity="0.96"/>
<path id="Ellipse 85" d="M10 17C10.9193 17 11.8295 16.8189 12.6788 16.4672C13.5281 16.1154 14.2997 15.5998 14.9497 14.9497C15.5998 14.2997 16.1154 13.5281 16.4672 12.6788C16.8189 11.8295 17 10.9193 17 10H10L10 17Z" fill="#F5F5F5" fill-opacity="0.96"/>
<path id="Ellipse 82" d="M17 9.99998C17 9.08072 16.8189 8.17047 16.4672 7.32119C16.1154 6.47191 15.5998 5.70024 14.9497 5.05023C14.2997 4.40022 13.5281 3.8846 12.6788 3.53282C11.8295 3.18104 10.9193 2.99998 10 2.99998L10 9.99998H17Z" fill="#F5F5F5" fill-opacity="0.48"/>
<path id="Ellipse 83" d="M3 10C3 10.9193 3.18106 11.8295 3.53284 12.6788C3.88463 13.5281 4.40024 14.2997 5.05025 14.9497C5.70026 15.5998 6.47194 16.1154 7.32122 16.4672C8.1705 16.8189 9.08075 17 10 17L10 10H3Z" fill="#F5F5F5" fill-opacity="0.48"/>
</g>
</g>
</g>
</g>
</svg>
