<svg width="20" height="20" viewBox="0 0 20 20" fill="none" xmlns="http://www.w3.org/2000/svg">
<g id="icn_inspector">
<g id="Property 1=icn_fixture">
<path id="Rectangle 6090" d="M3 15L17 15V16C17 16.5523 16.5523 17 16 17L4 17C3.44772 17 3 16.5523 3 16L3 15Z" fill="#F5F5F5" fill-opacity="0.96"/>
<path id="Rectangle 6093" d="M3 8C3 7.44772 3.44772 7 4 7C4.55228 7 5 7.44772 5 8L5 14L3 14L3 8Z" fill="#F5F5F5" fill-opacity="0.96"/>
<path id="Rectangle 6094" d="M15 8C15 7.44772 15.4477 7 16 7C16.5523 7 17 7.44772 17 8L17 14L15 14L15 8Z" fill="#F5F5F5" fill-opacity="0.96"/>
<path id="Rectangle 6091" d="M6 6.5C6 6.22386 6.22386 6 6.5 6C6.77614 6 7 6.22386 7 6.5L7 12C7 12.5523 6.55228 13 6 13L6 6.5Z" fill="#F5F5F5" fill-opacity="0.96"/>
<path id="Rectangle 6092" d="M13 6.5C13 6.22386 13.2239 6 13.5 6C13.7761 6 14 6.22386 14 6.5L14 13C13.4477 13 13 12.5523 13 12L13 6.5Z" fill="#F5F5F5" fill-opacity="0.96"/>
<rect id="Rectangle 6095" x="8" y="3" width="4" height="8" fill="#F5F5F5" fill-opacity="0.48"/>
</g>
</g>
</svg>
