<svg width="20" height="20" viewBox="0 0 20 20" fill="none" xmlns="http://www.w3.org/2000/svg">
<g id="icn_inspector">
<g id="Property 1=icn_tool">
<g id="Vector">
<path d="M12 10.6057C12 10.4915 11.9733 10.3789 11.9222 10.2768C11.7077 9.84895 11.1473 9.73605 10.7832 10.0474L8.34921 12.1288C8.12756 12.3183 8 12.595 8 12.8862V13.1987C8 13.3467 8.0413 13.4917 8.11926 13.6175C8.37979 14.038 8.95733 14.1225 9.32798 13.7945L11.6636 11.7274C11.8775 11.5381 12 11.2664 12 10.9811V10.6057Z" fill="#F5F5F5" fill-opacity="0.96"/>
<path d="M12 3.99764C12 3.44666 11.5523 3 11 3H9C8.44771 3 8 3.44666 8 3.99764V9.20817C8 9.3561 8.0413 9.50111 8.11927 9.62694C8.37981 10.0474 8.95734 10.132 9.32799 9.80392L11.6636 7.73688C11.8776 7.54754 12 7.27588 12 6.99057V3.99764Z" fill="#F5F5F5" fill-opacity="0.96"/>
<path d="M12 14.5963C12 14.4821 11.9733 14.3695 11.9222 14.2674C11.7077 13.8395 11.1473 13.7266 10.7832 14.0379L8.8199 15.7168C8.37763 16.095 8.35169 16.7688 8.76359 17.1797L9.29289 17.7078C9.68341 18.0974 10.3166 18.0974 10.7071 17.7078L11.7071 16.7102C11.8946 16.5231 12 16.2693 12 16.0047V14.5963Z" fill="#F5F5F5" fill-opacity="0.96"/>
</g>
<g id="Vector_2">
<path d="M16 9.3023C16 9.24521 15.9867 9.18891 15.9611 9.13785C15.8539 8.92387 15.5737 8.86741 15.3916 9.0231L14.1746 10.064C14.0638 10.1587 14 10.2971 14 10.4427V10.599C14 10.673 14.0206 10.7455 14.0596 10.8084C14.1899 11.0187 14.4787 11.061 14.664 10.8969L15.8318 9.86326C15.9388 9.76858 16 9.63273 16 9.49005V9.3023Z" fill="#F5F5F5" fill-opacity="0.48"/>
<path d="M16 5.49889C16 5.22336 15.7761 5 15.5 5H14.5C14.2239 5 14 5.22336 14 5.49889V8.60344C14 8.67741 14.0206 8.74993 14.0596 8.81285C14.1899 9.02311 14.4787 9.0654 14.664 8.90136L15.8318 7.86768C15.9388 7.773 16 7.63715 16 7.49447V5.49889Z" fill="#F5F5F5" fill-opacity="0.48"/>
<path d="M16 11.2979C16 11.2408 15.9867 11.1845 15.9611 11.1334C15.8539 10.9195 15.5737 10.863 15.3916 11.0187L14.41 11.8582C14.1888 12.0474 14.1758 12.3843 14.3818 12.5898L14.6464 12.8539C14.8417 13.0487 15.1583 13.0487 15.3535 12.8539L15.8535 12.355C15.9473 12.2614 16 12.1345 16 12.0022V11.2979Z" fill="#F5F5F5" fill-opacity="0.48"/>
</g>
<g id="Vector_3">
<path d="M5.99999 9.3023C5.99999 9.24521 5.98667 9.18891 5.96109 9.13785C5.85386 8.92387 5.57365 8.86741 5.39161 9.0231L4.1746 10.064C4.06378 10.1587 4 10.2971 4 10.4427V10.599C4 10.673 4.02065 10.7455 4.05963 10.8084C4.1899 11.0187 4.47866 11.061 4.66399 10.8969L5.8318 9.86326C5.93877 9.76858 5.99999 9.63273 5.99999 9.49005V9.3023Z" fill="#F5F5F5" fill-opacity="0.48"/>
<path d="M6 5.49889C6 5.22336 5.77614 5 5.5 5H4.5C4.22386 5 4 5.22336 4 5.49889V8.60344C4 8.67741 4.02065 8.74993 4.05963 8.81285C4.1899 9.02311 4.47867 9.0654 4.664 8.90136L5.83181 7.86768C5.93878 7.773 6 7.63715 6 7.49447V5.49889Z" fill="#F5F5F5" fill-opacity="0.48"/>
<path d="M5.99999 11.2979C5.99999 11.2408 5.98667 11.1845 5.96109 11.1334C5.85386 10.9195 5.57365 10.863 5.39161 11.0187L4.40995 11.8582C4.18881 12.0474 4.17584 12.3843 4.38179 12.5898L4.64644 12.8539C4.84171 13.0487 5.15829 13.0487 5.35355 12.8539L5.85355 12.355C5.94731 12.2614 5.99999 12.1345 5.99999 12.0022V11.2979Z" fill="#F5F5F5" fill-opacity="0.48"/>
</g>
</g>
</g>
</svg>
