<svg width="20" height="20" viewBox="0 0 20 20" fill="none" xmlns="http://www.w3.org/2000/svg">
<g id="icn_inspector">
<g id="Property 1=icn_more">
<rect id="Rectangle 9014" width="5" height="5" rx="2.5" transform="matrix(1 0 0 -1 11 16)" fill="#F5F5F5" fill-opacity="0.48"/>
<rect id="Rectangle 9015" width="5" height="5" rx="1" transform="matrix(1 0 0 -1 4 9)" fill="#F5F5F5" fill-opacity="0.48"/>
<path id="Vector 2323" d="M11 6.5H16M13.5 9V4" stroke="#F5F5F5" stroke-opacity="0.96" stroke-width="1.25"/>
<path id="Vector 2324" d="M8.77903 12.9665L7.03347 11.221C6.89199 11.0795 6.70009 11 6.5 11C6.29991 11 6.10801 11.0795 5.96653 11.221L4.22097 12.9665C4.07949 13.108 4 13.2999 4 13.5C4 13.7001 4.07949 13.892 4.22097 14.0335L5.96653 15.779C6.10801 15.9205 6.29991 16 6.5 16C6.70009 16 6.89199 15.9205 7.03347 15.779L8.77903 14.0335C8.92051 13.892 9 13.7001 9 13.5C9 13.2999 8.92051 13.108 8.77903 12.9665Z" fill="#F5F5F5" fill-opacity="0.96"/>
</g>
</g>
</svg>
